<svg id="_75kNFk.tif" data-name="75kNFk.tif" xmlns="http://www.w3.org/2000/svg" width="5.169" height="11.163" viewBox="0 0 5.169 11.163">
  <g id="Group_80" data-name="Group 80">
    <path id="Path_137" data-name="Path 137" d="M317.568-729.9v-1.967h1.1c0-.064,0-.114,0-.165.007-.472-.008-.946.027-1.416a2.138,2.138,0,0,1,.7-1.485,2.174,2.174,0,0,1,1.462-.531c.585-.013,1.172,0,1.758,0,.032,0,.064.006.1.009v1.905h-.145c-.352,0-.7,0-1.057,0a.445.445,0,0,0-.51.45c-.023.406-.006.814-.006,1.237h1.746c0,.053,0,.092,0,.129-.059.583-.12,1.167-.177,1.75-.009.089-.053.1-.126.1-.395,0-.79,0-1.184,0h-.265v.178q0,2.7,0,5.4h-2.293a1.325,1.325,0,0,1-.019-.162q0-2.626,0-5.252v-.166c-.145,0-.268,0-.391,0Z" transform="translate(-317.568 735.468)" fill="#fff" />
  </g>
</svg>
