<?xml version="1.0" encoding="utf-8"?>
<!-- Generator: Adobe Illustrator 24.2.1, SVG Export Plug-In . SVG Version: 6.00 Build 0)  -->
<svg version="1.1" id="Layer_1" xmlns="http://www.w3.org/2000/svg" xmlns:xlink="http://www.w3.org/1999/xlink" x="0px" y="0px"
	 viewBox="0 0 16 16" style="enable-background:new 0 0 16 16;" xml:space="preserve">
<style type="text/css">
	.st0{fill:#1D1D1B;}
	.st1{fill:none;stroke:#FFFFFF;stroke-width:0.75;}
	.st2{fill:none;stroke:#FFFFFF;stroke-width:0.75;stroke-miterlimit:4.0006;}
	.st3{fill:#FFFFFF;}
</style>
<rect x="17.8" class="st0" width="16" height="16"/>
<g id="aJPw9E.tif_1_" transform="translate(0.5 0.5)">
	<g id="Group_6624_1_">
		<path id="Path_142_1_" class="st1" d="M25.3,12.2h-4.8c-0.5,0-0.9-0.3-1-0.8c0-0.1,0-0.1,0-0.2c0-2.2,0-4.5,0-6.7c0-0.6,0.5-1,1-1
			c0,0,0,0,0,0c0.7,0,1.5,0,2.2,0c0,0,0.1,0,0.1,0c0.2-0.2,0.5-0.5,0.8-0.7c0,0,0.1,0,0.1,0c1.1,0,2.2,0,3.2,0c0,0,0.1,0,0.1,0
			c0.3,0.2,0.5,0.5,0.8,0.7c0,0,0.1,0,0.1,0c0.7,0,1.5,0,2.2,0c0.6,0,1.1,0.4,1.1,0.9c0,0,0,0.1,0,0.1c0,2.2,0,4.4,0,6.7
			c0,0.5-0.4,0.9-0.8,1C30.2,12.2,26.9,12.2,25.3,12.2z"/>
		<path id="Path_143_1_" class="st2" d="M23.3,7.8c0-1.1,0.9-2,2-2s2,0.9,2,2s-0.9,2-2,2c0,0,0,0,0,0C24.2,9.8,23.3,8.9,23.3,7.8z"
			/>
	</g>
</g>
<path class="st3" d="M5.8,4.6C7.6,5.7,9.3,6.9,11.1,8c-1.8,1.1-3.6,2.3-5.3,3.4C5.8,9.1,5.8,6.9,5.8,4.6z"/>
</svg>
