<?xml version="1.0" encoding="utf-8"?>
<!-- Generator: Adobe Illustrator 24.3.0, SVG Export Plug-In . SVG Version: 6.00 Build 0)  -->
<svg version="1.1" id="Layer_1" xmlns="http://www.w3.org/2000/svg" xmlns:xlink="http://www.w3.org/1999/xlink" x="0px" y="0px"
	 viewBox="0 0 16 16" style="enable-background:new 0 0 16 16;" xml:space="preserve">
<style type="text/css">
	.st0{fill:none;stroke:#FFFFFF;}
</style>
<g id="aJPw9E.tif_2_" transform="translate(0.5 0.5)">
	<g id="Group_6624_2_">
		<path id="Path_142_2_" class="st0" d="M2.1,7.5V3.1c0-0.5,0.3-0.8,0.8-0.9c0.1,0,0.1,0,0.2,0c2.2,0,6.5,0,8.7,0c0.6,0,1,0.5,1,0.9
			l0,0c0,0.6,0,8.2,0,8.8c0,0.5-0.4,1-0.9,1h-0.1c-2.2,0-6.4,0-8.7,0c-0.5,0-0.9-0.4-1-0.7C2.1,12,2.1,8.9,2.1,7.5z"/>
	</g>
</g>
<path id="Path_142_3_" class="st0" d="M4.4,5.4c1.7,0,5.4,0,7.1,0"/>
<path id="Path_142_4_" class="st0" d="M4.4,8c1.7,0,5.4,0,7.1,0"/>
<path id="Path_142_5_" class="st0" d="M4.4,10.6c1.7,0,5.4,0,7.1,0"/>
</svg>
