<?xml version="1.0" encoding="utf-8"?>
<!-- Generator: Adobe Illustrator 24.2.1, SVG Export Plug-In . SVG Version: 6.00 Build 0)  -->
<svg version="1.1" id="Layer_1" xmlns="http://www.w3.org/2000/svg" xmlns:xlink="http://www.w3.org/1999/xlink" x="0px" y="0px"
	 viewBox="0 0 16 16" style="enable-background:new 0 0 16 16;" xml:space="preserve">
<style type="text/css">
	.st0{fill:none;stroke:#FFFFFF;}
	.st1{fill:none;stroke:#FFFFFF;stroke-miterlimit:4.0006;}
</style>
<g id="aJPw9E.tif_1_" transform="translate(0.5 0.5)">
	<g id="Group_6624_1_">
		<path id="Path_142_1_" class="st0" d="M7.5,12.2H2.7c-0.5,0-0.9-0.3-1-0.8c0-0.1,0-0.1,0-0.2c0-2.2,0-4.5,0-6.7c0-0.6,0.5-1,1-1
			l0,0c0.7,0,1.5,0,2.2,0H5C5.3,3.2,5.5,3,5.8,2.8h0.1c1.1,0,2.2,0,3.2,0h0.1C9.5,3,9.7,3.3,10,3.5h0.1c0.7,0,1.5,0,2.2,0
			c0.6,0,1.1,0.4,1.1,0.9v0.1c0,2.2,0,4.4,0,6.7c0,0.5-0.4,0.9-0.8,1C12.5,12.2,9.1,12.2,7.5,12.2z"/>
		<path id="Path_143_1_" class="st1" d="M5.5,7.8c0-1.1,0.9-2,2-2s2,0.9,2,2s-0.9,2-2,2l0,0C6.4,9.8,5.5,8.9,5.5,7.8z"/>
	</g>
</g>
</svg>
