<svg id="mZdb4S.tif" xmlns="http://www.w3.org/2000/svg" width="11.211" height="11.203" viewBox="0 0 11.211 11.203">
  <g id="Group_78" data-name="Group 78">
    <path id="Path_133" data-name="Path 133" d="M88.336-686.557c0,.817,0,1.633,0,2.45a3.071,3.071,0,0,1-.7,2.018,2.948,2.948,0,0,1-1.654,1.039,3.54,3.54,0,0,1-.762.091c-1.653.008-3.306.013-4.958,0a3.031,3.031,0,0,1-2.748-1.61,2.866,2.866,0,0,1-.378-1.457c0-1.685-.015-3.37,0-5.055a2.991,2.991,0,0,1,1.5-2.626,2.968,2.968,0,0,1,1.605-.444c1.656,0,3.312-.009,4.968,0a3.029,3.029,0,0,1,2.748,1.61,2.915,2.915,0,0,1,.379,1.484Q88.337-687.805,88.336-686.557Zm-5.6,4.609h2.452a2.051,2.051,0,0,0,.91-.183,2.049,2.049,0,0,0,1.243-1.948c.01-1.649,0-3.3,0-4.946a2,2,0,0,0-.185-.89,2.049,2.049,0,0,0-1.943-1.238c-1.653-.011-3.306,0-4.959,0a2.061,2.061,0,0,0-1.419.53,2.094,2.094,0,0,0-.709,1.638q0,2.372,0,4.744c0,.116,0,.233.011.348a2.043,2.043,0,0,0,.961,1.616,2.086,2.086,0,0,0,1.184.332Z" transform="translate(-77.126 692.154)"/>
    <path id="Path_134" data-name="Path 134" d="M104.862-667.331a2.892,2.892,0,0,1-2.895,2.876,2.892,2.892,0,0,1-2.878-2.892,2.892,2.892,0,0,1,2.894-2.876A2.892,2.892,0,0,1,104.862-667.331Zm-1-.013a1.894,1.894,0,0,0-1.9-1.885,1.893,1.893,0,0,0-1.884,1.89,1.894,1.894,0,0,0,1.893,1.89A1.9,1.9,0,0,0,103.867-667.344Z" transform="translate(-96.369 672.94)"/>
    <path id="Path_135" data-name="Path 135" d="M141.507-675.565a.731.731,0,0,1-.732-.725.735.735,0,0,1,.732-.727.736.736,0,0,1,.728.722A.731.731,0,0,1,141.507-675.565Z" transform="translate(-132.889 678.893)"/>
  </g>
</svg>
