<svg id="Group_81" data-name="Group 81" xmlns="http://www.w3.org/2000/svg" width="11.042" height="10.544" viewBox="0 0 11.042 10.544">
  <path id="Path_138" data-name="Path 138" d="M141.075-858.781h-2.351v-.254c0-1.194,0-2.387,0-3.581a2.846,2.846,0,0,0-.091-.719,1.158,1.158,0,0,0-1.869-.6,1.387,1.387,0,0,0-.539,1.153q0,1.87,0,3.741v.261h-2.327v-7.081h2.317v.967c.076-.08.113-.111.141-.149A2.423,2.423,0,0,1,138.93-866a2.366,2.366,0,0,1,1.972,1.85,5.5,5.5,0,0,1,.177,1.326c.023,1.292.008,2.585.008,3.877C141.088-858.9,141.08-858.844,141.075-858.781Z" transform="translate(-130.05 869.322)" fill="#fff" />
  <path id="Path_139" data-name="Path 139" d="M108.171-857.534h-2.328v-7.09h2.328Z" transform="translate(-105.684 868.078)" fill="#fff" />
  <path id="Path_140" data-name="Path 140" d="M105.948-888.472a1.214,1.214,0,0,1-1.264-1.564,1.163,1.163,0,0,1,.926-.84,1.328,1.328,0,0,1,1.581.71A1.221,1.221,0,0,1,105.948-888.472Z" transform="translate(-104.632 890.921)" fill="#fff" />
</svg>
