<svg width="91" height="60" viewBox="0 0 91 60"xmlns="http://www.w3.org/2000/svg"><defs><style>.a{fill:#e0e0e0}</style></defs>
<path d="M26.7249 28.0781V7.94644L16.38 27.892H14.1101L3.72797 7.94644V28.0781H0.304474V0.243576H3.28143L15.2264 22.9428L27.1715 0.243576H30.1112V28.0781H26.7249ZM56.6061 28.0781L41.7213 6.5696V28.0781H38.2978V0.243576H41.1631L56.1223 21.7893V0.243576H59.5086V28.0781H56.6061ZM11.1703 31.7045C15.1148 31.7045 18.3336 32.9449 20.8268 35.4257C23.32 37.9065 24.5666 41.3052 24.5666 45.6218C24.5666 49.9136 23.3014 53.306 20.771 55.7992C18.2406 58.2924 15.0156 59.539 11.0959 59.539H0.304474V31.7045H11.1703ZM3.69076 56.6365H11.1331C14.1349 56.6365 16.5599 55.6752 18.4081 53.7526C20.2563 51.83 21.1803 49.1197 21.1803 45.6218C21.1803 42.1239 20.2687 39.4136 18.4453 37.491C16.6219 35.5684 14.2093 34.6071 11.2076 34.6071H3.69076V56.6365ZM49.4614 59.539V46.6265H34.9487V59.539H31.5253V31.7045H34.9487V43.5751H49.4614V31.7045H52.8477V59.539H49.4614ZM61.0343 59.539V31.6673H70.4117C73.1654 31.6673 75.5221 32.641 77.4819 34.5885C79.4418 36.5359 80.4217 38.8864 80.4217 41.6401C80.4217 43.8728 79.7643 45.8637 78.4495 47.6126C77.1346 49.3616 75.4353 50.5586 73.3514 51.2036L80.0868 59.539H76.0307L64.4578 45.2497L64.495 59.539H61.0343ZM70.9699 48.2638C72.7312 48.0902 74.2073 47.377 75.3981 46.1242C76.5889 44.8713 77.1843 43.3767 77.1843 41.6401C77.1843 39.7547 76.5268 38.1484 75.212 36.8212C73.8972 35.494 72.2971 34.8303 70.4117 34.8303H64.4578V40.1889L70.9699 48.2638ZM87.4175 59.539V31.7045H90.841V59.539H87.4175Z"/>
</svg>
