<svg xmlns="http://www.w3.org/2000/svg" width="26.561" height="20.775" viewBox="0 0 26.561 20.775">
  <g id="Oes3XL.tif" transform="translate(-2 -2)">
    <g id="Group_6848" data-name="Group 6848" transform="translate(2 2)">
      <path id="Path_191" data-name="Path 191" d="M2044.4,598.146c-1.638-2.151-3.243-4.274-4.876-6.376a.934.934,0,0,0-.658-.223c-1.877-.017-3.753-.01-5.63-.01-.148,0-.332.054-.435-.015a3.807,3.807,0,0,1-.534-.506c.18-.168.358-.479.541-.482q3.384-.051,6.768,0a1.024,1.024,0,0,1,.64.42c1.489,1.922,2.958,3.86,4.434,5.793.126.165.259.323.416.519,1.148-1.5,2.26-2.963,3.375-4.421a5.551,5.551,0,0,1,4.679-2.332c1.237.011,2.474,0,3.892,0-.677-.644-1.232-1.174-1.791-1.7-.269-.255-.577-.535-.248-.908.354-.4.669-.127.961.156.849.824,1.7,1.649,2.563,2.458a.624.624,0,0,1,.005,1.063c-.89.843-1.76,1.709-2.636,2.565-.263.257-.551.45-.868.11s-.125-.609.14-.874a18.531,18.531,0,0,0,1.719-1.918c-1.686.084-3.381.089-5.055.282a3.777,3.777,0,0,0-2.47,1.648c-1.106,1.443-2.192,2.9-3.311,4.336a.594.594,0,0,0,.014.871c1.093,1.4,2.163,2.818,3.237,4.233a4.653,4.653,0,0,0,3.87,1.926c1.235.008,2.471,0,3.812,0-.56-.573-1.038-1.064-1.518-1.554-.133-.136-.343-.247-.389-.406a3.174,3.174,0,0,1-.034-.784c.244.009.582-.084.72.042.981.9,1.924,1.842,2.875,2.773.344.336.221.633-.082.922-.9.86-1.783,1.745-2.715,2.573a.843.843,0,0,1-.8.083c-.323-.222-.171-.556.09-.8l1.909-1.819c-1.031,0-1.9.012-2.774,0a16.725,16.725,0,0,1-2.268-.1,5.369,5.369,0,0,1-3.506-2.192c-1.115-1.463-2.228-2.927-3.39-4.453-.146.176-.279.324-.4.481-1.476,1.932-2.94,3.874-4.437,5.79a1.224,1.224,0,0,1-.809.456c-2.151.037-4.3.024-6.452.018-.511,0-.861-.328-.667-.64a.962.962,0,0,1,.7-.368c1.96-.029,3.921,0,5.882-.032a1.052,1.052,0,0,0,.729-.335C2041.213,602.354,2042.779,600.278,2044.4,598.146Z" transform="translate(-2032.251 -587.699)" fill="#fe5000"/>
    </g>
  </g>
</svg>
