

<svg version="1.1" id="Layer_1" xmlns="http://www.w3.org/2000/svg" xmlns:xlink="http://www.w3.org/1999/xlink" x="0px" y="0px"
 viewBox="0 0 366 45.6" style="enable-background:new 0 0 366 45.6;" xml:space="preserve">
<path d="M34.515 30.295C34.515 35.275 33.105 39.22 30.285 42.13C27.495 45.01 23.73 46.45 18.99 46.45C14.19 46.45 10.245 44.905 7.15499 41.815C4.06499 38.725 2.51999 34.51 2.51999 29.17C2.51999 23.83 4.04999 19.615 7.10999 16.525C10.17 13.435 14.115 11.89 18.945 11.89C22.875 11.89 26.235 12.955 29.025 15.085C31.845 17.185 33.585 20.095 34.245 23.815L29.97 24.49C29.55 21.73 28.335 19.555 26.325 17.965C24.315 16.375 21.84 15.58 18.9 15.58C15.21 15.58 12.255 16.765 10.035 19.135C7.81499 21.475 6.70499 24.82 6.70499 29.17C6.70499 33.49 7.81499 36.835 10.035 39.205C12.285 41.575 15.24 42.76 18.9 42.76C22.08 42.76 24.66 41.905 26.64 40.195C28.62 38.485 29.775 35.935 30.105 32.545H19.035V28.9H34.515V30.295Z" fill="#5FAD53"/>
<path d="M38.308 46V12.295H49.648C52.978 12.295 55.828 13.48 58.198 15.85C60.568 18.19 61.753 21.025 61.753 24.355C61.753 27.055 60.958 29.47 59.368 31.6C57.778 33.7 55.723 35.14 53.203 35.92L61.348 46H56.443L42.448 28.72L42.493 46H38.308ZM50.323 32.365C52.453 32.155 54.238 31.3 55.678 29.8C57.118 28.27 57.838 26.455 57.838 24.355C57.838 22.075 57.043 20.14 55.453 18.55C53.863 16.93 51.928 16.12 49.648 16.12H42.448V22.6L50.323 32.365Z" fill="#5FAD53"/>
<path d="M69.8505 15.985V26.83H84.5655V30.385H69.8505V42.355H86.5455V46H65.7105V12.34H86.5455V15.985H69.8505Z" fill="#5FAD53"/>
<path d="M93.8253 15.985V26.83H108.54V30.385H93.8253V42.355H110.52V46H89.6853V12.34H110.52V15.985H93.8253Z" fill="#5FAD53"/>
<path d="M135.8 46L117.8 19.99V46H113.66V12.34H117.125L135.215 38.395V12.34H139.31V46H135.8Z" fill="#5FAD53"/>
<path d="M188.636 11.89C192.656 11.89 196.091 13.015 198.941 15.265C201.791 17.515 203.471 20.545 203.981 24.355L199.706 24.76C199.286 21.88 198.056 19.63 196.016 18.01C193.976 16.39 191.471 15.58 188.501 15.58C184.871 15.58 181.931 16.795 179.681 19.225C177.431 21.655 176.306 24.97 176.306 29.17C176.306 33.46 177.446 36.805 179.726 39.205C182.036 41.575 184.991 42.76 188.591 42.76C191.531 42.76 193.991 42.01 195.971 40.51C197.981 38.98 199.241 36.835 199.751 34.075L204.026 34.435C203.396 38.125 201.686 41.05 198.896 43.21C196.106 45.37 192.716 46.45 188.726 46.45C183.866 46.45 179.876 44.905 176.756 41.815C173.666 38.725 172.121 34.51 172.121 29.17C172.121 23.83 173.651 19.615 176.711 16.525C179.801 13.435 183.776 11.89 188.636 11.89Z" fill="#5FAD53"/>
<path d="M233.844 33.355C233.844 37.525 232.644 40.75 230.244 43.03C227.844 45.31 224.574 46.45 220.434 46.45C216.294 46.45 213.024 45.31 210.624 43.03C208.224 40.75 207.024 37.525 207.024 33.355V12.34H211.119V33.31C211.119 36.4 211.929 38.755 213.549 40.375C215.199 41.965 217.494 42.76 220.434 42.76C223.344 42.76 225.624 41.95 227.274 40.33C228.924 38.71 229.749 36.37 229.749 33.31V12.34H233.844V33.355Z" fill="#5FAD53"/>
<path d="M259.974 42.355V46H238.959V12.34H243.099V42.355H259.974Z" fill="#5FAD53"/>
<path d="M269.004 15.985V46H264.864V15.985H252.354V12.34H281.514V15.985H269.004Z" fill="#5FAD53"/>
<path d="M310.162 33.355C310.162 37.525 308.962 40.75 306.562 43.03C304.163 45.31 300.893 46.45 296.753 46.45C292.613 46.45 289.342 45.31 286.942 43.03C284.542 40.75 283.342 37.525 283.342 33.355V12.34H287.438V33.31C287.438 36.4 288.247 38.755 289.867 40.375C291.517 41.965 293.813 42.76 296.753 42.76C299.663 42.76 301.942 41.95 303.592 40.33C305.242 38.71 306.068 36.37 306.068 33.31V12.34H310.162V33.355Z" fill="#5FAD53"/>
<path d="M315.278 46V12.295H326.618C329.948 12.295 332.798 13.48 335.168 15.85C337.538 18.19 338.723 21.025 338.723 24.355C338.723 27.055 337.928 29.47 336.338 31.6C334.748 33.7 332.693 35.14 330.173 35.92L338.318 46H333.413L319.418 28.72L319.463 46H315.278ZM327.293 32.365C329.423 32.155 331.208 31.3 332.648 29.8C334.088 28.27 334.808 26.455 334.808 24.355C334.808 22.075 334.013 20.14 332.423 18.55C330.833 16.93 328.898 16.12 326.618 16.12H319.418V22.6L327.293 32.365Z" fill="#5FAD53"/>
<path d="M346.82 15.985V26.83H361.535V30.385H346.82V42.355H363.515V46H342.68V12.34H363.515V15.985H346.82Z" fill="#5FAD53"/>
</svg>
