<svg id="YwfjeC.tif" xmlns="http://www.w3.org/2000/svg" width="12.268" height="10.104" viewBox="0 0 12.268 10.104">
  <g id="Group_79" data-name="Group 79">
    <path id="Path_136" data-name="Path 136" d="M-281.5-916.454a2.644,2.644,0,0,1-2.358-1.784h1.014a2.733,2.733,0,0,1-1.908-2.53l1.052.294.037-.067a2.569,2.569,0,0,1-1-1.519,2.514,2.514,0,0,1,.282-1.832,7.292,7.292,0,0,0,5.2,2.653,8.335,8.335,0,0,1,.054-1.056,2.532,2.532,0,0,1,4.123-1.469.5.5,0,0,0,.57.118c.407-.158.818-.307,1.249-.469a2.9,2.9,0,0,1-.974,1.327c.135-.025.27-.046.4-.078.15-.036.3-.079.447-.125s.274-.092.466-.157a4.393,4.393,0,0,1-1.042,1.135.45.45,0,0,0-.2.409,7.234,7.234,0,0,1-5.235,7.069,7.258,7.258,0,0,1-5.664-.721.474.474,0,0,1-.132-.111A5.379,5.379,0,0,0-281.5-916.454Z" transform="translate(285.115 924.366)" fill="#fff"/>
  </g>
</svg>
